<?xml version="1.0" encoding="iso-8859-1"?>
<!-- Generator: Adobe Illustrator 19.0.0, SVG Export Plug-In . SVG Version: 6.00 Build 0)  -->
<svg version="1.1" id="Capa_1" xmlns="http://www.w3.org/2000/svg" xmlns:xlink="http://www.w3.org/1999/xlink" x="0px" y="0px"
	 viewBox="0 0 512 512" style="enable-background:new 0 0 512 512;" xml:space="preserve">
<g>
	<g>
		<path d="M497.231,0H14.769C6.613,0,0,6.613,0,14.769v34.462c0,24.431,19.876,44.308,44.308,44.308h423.385
			c24.431,0,44.308-19.876,44.308-44.308V14.769C512,6.613,505.387,0,497.231,0z"/>
	</g>
</g>
<g>
	<g>
		<path d="M384.597,294.788c-5.767-5.768-15.119-5.768-20.887,0l-29.538,29.538c-5.768,5.768-5.768,15.119,0,20.887
			c2.884,2.884,6.664,4.325,10.444,4.325c3.78,0,7.56-1.441,10.443-4.326l29.538-29.538
			C390.366,309.907,390.366,300.555,384.597,294.788z"/>
	</g>
</g>
<g>
	<g>
		<path d="M384.597,353.864c-5.767-5.768-15.119-5.768-20.886,0.001l-19.692,19.692c-5.768,5.768-5.768,15.119,0,20.887
			c2.883,2.884,6.663,4.325,10.443,4.325s7.56-1.441,10.443-4.326l19.692-19.692C390.365,368.983,390.365,359.632,384.597,353.864z"
			/>
	</g>
</g>
<g>
	<g>
		<path d="M177.827,324.325l-29.538-29.538c-5.767-5.768-15.119-5.768-20.886,0.001c-5.768,5.768-5.768,15.119,0,20.887
			l29.538,29.538c2.883,2.884,6.663,4.325,10.443,4.325c3.78,0,7.56-1.441,10.443-4.326
			C183.595,339.444,183.595,330.093,177.827,324.325z"/>
	</g>
</g>
<g>
	<g>
		<path d="M167.981,373.556l-19.692-19.692c-5.767-5.768-15.119-5.768-20.887,0c-5.768,5.768-5.768,15.12,0.001,20.887
			l19.692,19.692c2.883,2.885,6.663,4.326,10.443,4.326c3.78,0,7.56-1.441,10.443-4.326
			C173.749,388.675,173.749,379.324,167.981,373.556z"/>
	</g>
</g>
<g>
	<g>
		<polygon points="201.846,388.205 201.846,424.102 310.154,369.949 310.154,334.051 		"/>
	</g>
</g>
<g>
	<g>
		<polygon points="201.846,319.282 201.846,355.179 310.154,301.025 310.154,265.128 		"/>
	</g>
</g>
<g>
	<g>
		<path d="M162.462,123.077v34.462c0,8.157,6.613,14.769,14.769,14.769h24.615v29.538h108.308v-29.538h24.615
			c8.157,0,14.769-6.613,14.769-14.769v-34.462H162.462z"/>
	</g>
</g>
<g>
	<g>
		<polygon points="201.846,231.385 201.846,286.256 310.154,232.102 310.154,231.385 		"/>
	</g>
</g>
<g>
	<g>
		<path d="M202.383,456.861c0.598,2.16,1.682,4.175,3.194,5.875l39.385,44.308c2.803,3.153,6.82,4.957,11.039,4.957
			s8.235-1.804,11.039-4.958l39.385-44.308c2.402-2.704,3.731-6.195,3.731-9.812v-49.949L202.383,456.861z"/>
	</g>
</g>
<g>
	<g>
		<path d="M201.171,487.419l-19.017-21.394v-32.795c0-8.157-6.613-14.769-14.769-14.769H14.769C6.613,418.462,0,425.074,0,433.231
			v64C0,505.387,6.613,512,14.769,512h175.363c5.816,0,11.091-3.414,13.473-8.719C205.988,497.975,205.035,491.765,201.171,487.419z
			"/>
	</g>
</g>
<g>
	<g>
		<path d="M497.231,418.462H344.615c-8.156,0-14.769,6.613-14.769,14.769v32.795l-19.016,21.394
			c-3.865,4.347-4.818,10.557-2.435,15.862c2.383,5.305,7.656,8.719,13.474,8.719h175.362c8.157,0,14.769-6.613,14.769-14.769v-64
			C512,425.074,505.387,418.462,497.231,418.462z"/>
	</g>
</g>
<g>
</g>
<g>
</g>
<g>
</g>
<g>
</g>
<g>
</g>
<g>
</g>
<g>
</g>
<g>
</g>
<g>
</g>
<g>
</g>
<g>
</g>
<g>
</g>
<g>
</g>
<g>
</g>
<g>
</g>
</svg>
