<svg id="Capa_1" enable-background="new 0 0 512 512" height="512" viewBox="0 0 512 512" width="512" xmlns="http://www.w3.org/2000/svg"><g><path d="m483.464 270.348c15.735 0 28.536-12.801 28.536-28.537v-7.241c0-15.735-12.801-28.537-28.536-28.537h-20.182l-5.552-37.607c-3.294-22.257-22.736-39.041-45.226-39.041h-140.735c-22.499 0-41.942 16.785-45.226 39.043l-5.551 37.604h-20.187c-15.735 0-28.536 12.801-28.536 28.537v7.241c0 15.735 12.801 28.537 28.536 28.537 3.747 0 7.439-.595 10.948-1.726l-.781 5.29c-18.564 13.262-30.7 34.968-30.7 59.469 0 15.581 4.858 30.411 13.834 42.783-8.196 4.156-13.83 12.66-13.83 22.461 0 13.879 11.292 25.171 25.171 25.171h4.618v22.435c0 5.251 1.388 10.182 3.807 14.456h-188.299c-14.101-.001-25.573 11.471-25.573 25.572s11.472 25.573 25.573 25.573h460.854c14.102 0 25.573-11.472 25.573-25.574 0-14.101-11.472-25.573-25.573-25.573h-10.604c2.419-4.274 3.807-9.204 3.807-14.456v-22.435h.668c13.879 0 25.171-11.292 25.171-25.171 0-9.8-5.634-18.304-13.829-22.46 8.979-12.353 13.831-27.14 13.831-42.784 0-19.511-7.602-37.858-21.401-51.658-3.389-3.392-7.056-6.404-10.946-9.026l-.602-4.075c3.509 1.132 7.2 1.729 10.942 1.729zm0-49.314c7.464 0 13.536 6.073 13.536 13.537v7.241c0 7.464-6.072 13.537-13.536 13.537-5.105 0-9.88-1.804-13.657-5.12l-4.31-29.194h17.967zm-282.659 34.314c-7.464 0-13.536-6.072-13.536-13.537v-7.241c0-7.464 6.072-13.537 13.536-13.537h17.972l-4.307 29.178c-3.753 3.286-8.625 5.137-13.665 5.137zm24.259 168.446h36.883v22.435c0 7.967-6.481 14.448-14.448 14.448h-7.987c-7.967 0-14.448-6.481-14.448-14.448zm271.936 62.464c0 5.83-4.743 10.573-10.573 10.573h-460.854c-5.83 0-10.573-4.743-10.573-10.574 0-5.83 4.743-10.573 10.573-10.573h460.854c5.83.001 10.573 4.744 10.573 10.574zm-223.86-25.573c2.419-4.274 3.807-9.204 3.807-14.456v-22.435h135.8v22.435c0 5.251 1.388 10.182 3.807 14.456zm191.49-14.456c0 7.967-6.481 14.448-14.448 14.448h-7.986c-7.967 0-14.448-6.481-14.448-14.448v-22.435h36.883v22.435zm15.668-37.435h-274.851c-5.608 0-10.171-4.562-10.171-10.171s4.562-10.171 10.171-10.171h274.851c5.608 0 10.171 4.562 10.171 10.171s-4.563 10.171-10.171 10.171zm10.173-75.414c0 15.11-5.678 29.229-16.047 40.073h-263.084c-10.363-10.851-16.068-25.02-16.068-40.073 0-32.016 26.051-58.063 58.072-58.063h179.054c15.519 0 30.101 6.04 41.062 17.01 10.97 10.968 17.011 25.548 17.011 41.053zm-45.303-71.937-7.069-47.839c-.606-4.099-4.419-6.927-8.517-6.323-4.098.605-6.929 4.418-6.323 8.516l6.578 44.52h-175.403l12.687-85.91c.329-2.247 2.371-4.007 4.648-4.007h140.731c2.278 0 4.32 1.76 4.65 4.013l1.729 11.74c.604 4.098 4.427 6.929 8.513 6.327 4.099-.604 6.931-4.415 6.327-8.513l-1.729-11.734c-1.406-9.597-9.785-16.833-19.491-16.833h-140.729c-9.705 0-18.084 7.236-19.489 16.824l-13.217 89.503c-4.003.796-7.885 1.926-11.625 3.349l13.943-94.457c2.207-14.956 15.27-26.233 30.387-26.233h140.735c15.11 0 28.174 11.279 30.387 26.234l13.854 93.837c-3.753-1.322-7.624-2.321-11.577-3.014z"/><path d="m445.527 286.211c-13.676 0-24.802 11.126-24.802 24.801v29.989c0 13.675 11.126 24.801 24.802 24.801 13.675 0 24.801-11.126 24.801-24.801v-29.989c0-13.675-11.126-24.801-24.801-24.801zm9.801 54.79c0 5.404-4.396 9.801-9.801 9.801s-9.802-4.397-9.802-9.801v-29.989c0-5.404 4.397-9.801 9.802-9.801s9.801 4.397 9.801 9.801z"/><path d="m240.218 286.211c-13.676 0-24.802 11.126-24.802 24.801v29.989c0 13.675 11.126 24.801 24.802 24.801 13.675 0 24.801-11.126 24.801-24.801v-29.989c0-13.675-11.126-24.801-24.801-24.801zm9.801 54.79c0 5.404-4.396 9.801-9.801 9.801s-9.802-4.397-9.802-9.801v-29.989c0-5.404 4.397-9.801 9.802-9.801 5.404 0 9.801 4.397 9.801 9.801z"/><path d="m388.433 295.438h-91.12c-10.496 0-19.035 8.539-19.035 19.034 0 4.338 1.475 8.33 3.928 11.534-2.453 3.205-3.928 7.196-3.928 11.534 0 10.496 8.539 19.034 19.035 19.034h91.12c10.495 0 19.034-8.539 19.034-19.034 0-4.338-1.475-8.33-3.928-11.534 2.453-3.205 3.928-7.196 3.928-11.534 0-10.495-8.539-19.034-19.034-19.034zm-91.121 15h91.12c2.225 0 4.034 1.81 4.034 4.034s-1.81 4.034-4.034 4.034h-91.12c-2.225 0-4.035-1.81-4.035-4.034s1.811-4.034 4.035-4.034zm91.121 31.138h-91.12c-2.225 0-4.035-1.81-4.035-4.034s1.811-4.035 4.035-4.035h91.12c2.225 0 4.034 1.81 4.034 4.035s-1.81 4.034-4.034 4.034z"/><path d="m101.89 380.171h-94.39c-4.142 0-7.5 3.358-7.5 7.5s3.358 7.5 7.5 7.5h94.39c15.12 0 27.42-12.3 27.42-27.42s-12.3-27.42-27.42-27.42h-28.51c-32.191 0-58.38-26.185-58.38-58.37 0-31.35 24.841-56.997 55.873-58.316v15.013c-22.757 1.304-40.873 20.224-40.873 43.302 0 23.915 19.46 43.37 43.38 43.37h28.51c23.391 0 42.42 19.029 42.42 42.42s-19.029 42.42-42.42 42.42h-18.32c-4.142 0-7.5 3.358-7.5 7.5s3.358 7.5 7.5 7.5h18.32c31.662 0 57.42-25.758 57.42-57.42s-25.758-57.42-57.42-57.42h-28.51c-15.649 0-28.38-12.727-28.38-28.37 0-14.817 11.415-27.01 25.912-28.266.808 16.703 14.648 30.043 31.547 30.043h18.701c4.142 0 7.5-3.358 7.5-7.5v-6.72h18.085c9.637 0 17.477-7.84 17.477-17.476s-7.84-17.476-17.477-17.476h-18.085v-7.97h18.085c9.637 0 17.477-7.84 17.477-17.477 0-9.636-7.84-17.476-17.477-17.476h-18.085v-6.72c0-4.142-3.358-7.5-7.5-7.5h-18.701c-17.294 0-31.38 13.973-31.577 31.222-39.308 1.325-70.882 33.693-70.882 73.317 0 40.457 32.918 73.37 73.38 73.37h28.51c6.848 0 12.42 5.572 12.42 12.42s-5.572 12.42-12.42 12.42zm44.855-130.606c1.366 0 2.477 1.111 2.477 2.476s-1.111 2.476-2.477 2.476h-18.085v-4.952zm0-42.922c1.366 0 2.477 1.111 2.477 2.476 0 1.366-1.111 2.477-2.477 2.477h-18.085v-4.953zm-60.872 2.366c0-9.146 7.44-16.586 16.586-16.586h11.201v76.314h-11.201c-9.146 0-16.586-7.44-16.586-16.586z"/><path d="m7.5 425.17h46.13c4.142 0 7.5-3.358 7.5-7.5s-3.358-7.5-7.5-7.5h-46.13c-4.142 0-7.5 3.358-7.5 7.5s3.358 7.5 7.5 7.5z"/><path d="m140.769 110.25h11.146l-8.294 53.911c-1.188 7.718 2.508 15.06 9.415 18.704 2.711 1.431 5.613 2.13 8.484 2.13 4.441 0 8.807-1.677 12.27-4.919l64.635-60.527c5.925-5.548 7.826-14.012 4.843-21.562-2.983-7.549-10.156-12.427-18.273-12.427h-13.619l22.509-56.478c2.593-6.508 1.795-13.855-2.137-19.654-3.931-5.798-10.46-9.26-17.465-9.26h-46.122c-9.169 0-17.234 5.859-20.068 14.579l-23.708 72.949c-1.699 5.228-.785 11.004 2.446 15.451 3.231 4.448 8.441 7.103 13.938 7.103zm-2.119-17.917 23.708-72.95c.819-2.521 3.151-4.215 5.802-4.215h46.122c2.056 0 3.896.976 5.05 2.677 1.154 1.702 1.379 3.773.618 5.683l-26.605 66.754c-.92 2.311-.636 4.927.759 6.985s3.721 3.292 6.208 3.292h24.682c2.853 0 3.973 2.056 4.322 2.939.35.884.937 3.15-1.146 5.101l-64.635 60.526c-1.378 1.291-2.786.849-3.501.471-.717-.378-1.875-1.291-1.589-3.155l9.624-62.551c.333-2.163-.295-4.363-1.72-6.024s-3.504-2.617-5.692-2.617h-19.888c-.988 0-1.553-.575-1.803-.918-.249-.342-.621-1.058-.316-1.998z"/></g></svg>