<?xml version="1.0" encoding="iso-8859-1"?>
<!-- Generator: Adobe Illustrator 19.0.0, SVG Export Plug-In . SVG Version: 6.00 Build 0)  -->
<svg version="1.1" id="Capa_1" xmlns="http://www.w3.org/2000/svg" xmlns:xlink="http://www.w3.org/1999/xlink" x="0px" y="0px"
	 viewBox="0 0 472.004 472.004" style="enable-background:new 0 0 472.004 472.004;" xml:space="preserve">
<g>
	<g>
		<g>
			<path d="M228.994,368.004c-13.255,0-24,10.745-24,24s10.745,24,24,24c13.255,0,24-10.745,24-24S242.249,368.004,228.994,368.004z
				 M228.994,400.004c-4.418,0-8-3.582-8-8c0-4.418,3.582-8,8-8s8,3.582,8,8S233.412,400.004,228.994,400.004z"/>
			<path d="M356.994,320.004c-13.255,0-24,10.745-24,24s10.745,24,24,24s24-10.745,24-24S370.249,320.004,356.994,320.004z
				 M356.994,352.004c-4.418,0-8-3.582-8-8s3.582-8,8-8s8,3.582,8,8S361.412,352.004,356.994,352.004z"/>
			<path d="M357.363,288.003c-8.839-0.029-17.559,2.041-25.441,6.041L260.994,241.7v-28.056l80.576-69.872
				c12.845-11.319,14.083-30.908,2.764-43.753c-11.189-12.698-30.493-14.075-43.372-3.095l-40,34.656V72.004
				c0-17.673-14.327-32-32-32c-17.673,0-32,14.327-32,32v115.072l-23.312,20.216c-12.906,11.277-14.226,30.881-2.95,43.787
				c5.878,6.727,14.369,10.594,23.302,10.613c0.984,0,1.976-0.2,2.96-0.296v84.8c-25.33,17.7-31.516,52.582-13.816,77.912
				s52.582,31.516,77.913,13.816c14.991-10.475,23.917-27.616,23.904-45.905c-0.065-18.27-9.019-35.366-24-45.824v-44.968
				l41.512,30.448c-6.751,30.146,12.215,60.057,42.361,66.808c30.146,6.751,60.057-12.215,66.808-42.361
				c0.891-3.978,1.344-8.042,1.352-12.119C413.096,313.178,388.189,288.105,357.363,288.003z M260.994,152.756l50.456-43.744
				c6.351-5.319,15.812-4.482,21.131,1.87c5.193,6.202,4.534,15.404-1.491,20.802l-70.096,60.8V152.756z M182.09,239.74
				c-4.797-6.273-3.886-15.195,2.08-20.368l12.8-11.12v36.96C191.369,246.414,185.577,244.284,182.09,239.74z M268.994,392.004
				c-0.005,22.091-17.917,39.996-40.009,39.991c-22.091-0.005-39.996-17.917-39.991-40.009c0.003-13.912,7.235-26.824,19.096-34.094
				c2.036-1.282,3.374-3.424,3.632-5.816c0.795-1.212,1.236-2.623,1.272-4.072v-276c-0.009-8.837,7.148-16.007,15.984-16.016
				s16.007,7.148,16.016,15.984c0,0.01,0,0.021,0,0.031v278.44c0.042,0.327,0.109,0.651,0.2,0.968
				c0.046,0.543,0.151,1.079,0.312,1.6c0.182,0.495,0.415,0.97,0.696,1.416c0.227,0.417,0.495,0.811,0.8,1.176
				c0.393,0.439,0.836,0.831,1.32,1.168c0.211,0.212,0.435,0.41,0.672,0.592C261.345,364.533,268.961,377.722,268.994,392.004z
				 M376.673,378.828c-6.004,3.393-12.783,5.176-19.679,5.176c-22.091,0.003-40.002-17.903-40.005-39.995
				c0-3.865,0.559-7.709,1.661-11.413c0.747-3.926-0.311-7.979-2.88-11.04l-53.208-39.024v-19.784l63.944,47.2
				c2.977,2.163,7.056,1.977,9.824-0.448c0.334-0.086,0.663-0.193,0.984-0.32c19.233-10.869,43.635-4.088,54.504,15.144
				C402.686,343.557,395.906,367.959,376.673,378.828z"/>
			<path d="M115.013,0c-1.876-0.001-3.692,0.657-5.132,1.86l-19.2,16C70.581,34.557,58.97,59.345,59.01,85.476v50.528
				c0,4.418,3.582,8,8,8s8,3.582,8,8v17.472c-9.555,3.378-15.958,12.394-16,22.528v256c0,13.255,10.745,24,24,24h16
				c13.255,0,24-10.745,24-24v-440C123.012,3.585,119.432,0.002,115.013,0z M107.01,448.004c0,4.418-3.582,8-8,8h-16
				c-4.418,0-8-3.582-8-8v-136h16v-16h-16v-16h16v-16h-16v-16h16v-16h-16v-16h32V448.004z M107.01,200.004h-32v-8
				c0-4.418,3.582-8,8-8h24V200.004z M107.01,168.004h-16v-16c-0.012-10.168-6.418-19.229-16-22.632V85.476
				c-0.026-21.375,9.473-41.65,25.912-55.312l6.088-5.08V168.004z"/>
		</g>
	</g>
</g>
<g>
</g>
<g>
</g>
<g>
</g>
<g>
</g>
<g>
</g>
<g>
</g>
<g>
</g>
<g>
</g>
<g>
</g>
<g>
</g>
<g>
</g>
<g>
</g>
<g>
</g>
<g>
</g>
<g>
</g>
</svg>
